<svg width="12" height="15" viewBox="0 0 12 15" fill="none" xmlns="http://www.w3.org/2000/svg">
<path d="M3.96417 7.62873C3.50884 6.95602 3.23798 6.14435 3.18209 6.0754C3.84897 5.6008 5.15325 5.00439 5.22628 4.14863C5.3192 3.04296 3.48416 0.731527 3.13237 0.710526C2.16959 0.721027 0.407583 2.38425 0.198775 2.88686C-0.189353 3.92602 0.00299658 4.89309 0.670222 6.29311C1.51985 8.37564 4.67563 12.3261 6.48084 13.5662C7.6754 14.5021 8.548 14.8696 9.58998 14.6477C10.0745 14.5539 11.8241 13.0885 11.9993 12.0976C12.0422 11.7301 10.0083 9.2937 8.95636 9.1971C8.13964 9.1201 7.35653 10.3682 6.79525 10.9783C6.73936 10.9055 6.26072 10.5243 5.7471 9.92091C5.0785 9.20375 4.45722 8.36129 3.96417 7.62873Z" fill="white"/>
</svg>
