<svg width="18" height="18" viewBox="0 0 18 18" fill="none" xmlns="http://www.w3.org/2000/svg">
<path d="M14.8325 0C16.255 0 17.4083 1.00736 17.4083 2.25V15.075C17.4083 15.4478 17.0623 15.75 16.6355 15.75H1.95372C1.95372 16.2471 2.41501 16.65 2.98402 16.65H16.6355C17.0623 16.65 17.4083 16.9522 17.4083 17.325C17.4083 17.6978 17.0623 18 16.6355 18H2.98402C1.56147 18 0.408264 16.9926 0.408264 15.75V2.25C0.408264 1.00736 1.56147 0 2.98402 0H14.8325ZM11.484 8.55H6.33251C5.90574 8.55 5.55978 8.85222 5.55978 9.225V9.67455C5.55978 10.575 6.98479 11.25 8.90826 11.25C10.8316 11.25 12.2567 10.575 12.2567 9.67455V9.225C12.2567 8.85222 11.9108 8.55 11.484 8.55ZM8.90826 4.5C7.91217 4.5 7.10523 5.20077 7.10523 6.07092C7.10523 6.94108 7.91217 7.64649 8.90826 7.64649C9.90436 7.64649 10.7113 6.94108 10.7113 6.07092C10.7113 5.20077 9.90436 4.5 8.90826 4.5Z" fill="white"/>
</svg>
